<svg width="50" height="50" viewBox="0 0 50 50" fill="none" xmlns="http://www.w3.org/2000/svg">
<rect x="1" y="1" width="48" height="48" rx="24" fill="#543181"/>
<rect x="1" y="1" width="48" height="48" rx="24" stroke="white" stroke-width="2"/>
<path d="M14.5 31.2625C14.75 31.1875 14.994 31.125 15.232 31.075C15.47 31.025 15.726 31 16 31H17.5V13H16C15.575 13 15.219 13.144 14.932 13.432C14.645 13.72 14.501 14.076 14.5 14.5V31.2625ZM16 40C14.75 40 13.6875 39.5625 12.8125 38.6875C11.9375 37.8125 11.5 36.75 11.5 35.5V14.5C11.5 13.25 11.9375 12.1875 12.8125 11.3125C13.6875 10.4375 14.75 10 16 10H25C25.425 10 25.7815 10.144 26.0695 10.432C26.3575 10.72 26.501 11.076 26.5 11.5C26.499 11.924 26.355 12.2805 26.068 12.5695C25.781 12.8585 25.425 13.002 25 13H20.5V31H29.5V28C29.5 27.575 29.644 27.219 29.932 26.932C30.22 26.645 30.576 26.501 31 26.5C31.424 26.499 31.7805 26.643 32.0695 26.932C32.3585 27.221 32.502 27.577 32.5 28V34H16C15.575 34 15.219 34.144 14.932 34.432C14.645 34.72 14.501 35.076 14.5 35.5C14.499 35.924 14.643 36.2805 14.932 36.5695C15.221 36.8585 15.577 37.002 16 37H35.5V26.5C35.5 26.075 35.644 25.719 35.932 25.432C36.22 25.145 36.576 25.001 37 25C37.424 24.999 37.7805 25.143 38.0695 25.432C38.3585 25.721 38.502 26.077 38.5 26.5V37C38.5 37.825 38.2065 38.5315 37.6195 39.1195C37.0325 39.7075 36.326 40.001 35.5 40H16ZM33.25 25C33.25 22.7 34.05 20.75 35.65 19.15C37.25 17.55 39.2 16.75 41.5 16.75C39.2 16.75 37.25 15.95 35.65 14.35C34.05 12.75 33.25 10.8 33.25 8.5C33.25 10.8 32.45 12.75 30.85 14.35C29.25 15.95 27.3 16.75 25 16.75C27.3 16.75 29.25 17.55 30.85 19.15C32.45 20.75 33.25 22.7 33.25 25Z" fill="white"/>
</svg>
